<mxfile host="app.diagrams.net" modified="2024-07-12T19:11:59.113Z" agent="Mozilla/5.0 (Windows NT 10.0; Win64; x64; rv:128.0) Gecko/20100101 Firefox/128.0" version="24.6.5" etag="Unigh6czIemU93iBuUM6" type="github">
  <diagram name="Page-1" id="mx_s7k8I2mpHJwbVcjMV">
    <mxGraphModel>
      <root>
        <mxCell id="0" />
        <mxCell id="1" parent="0" />
      </root>
    </mxGraphModel>
  </diagram>
</mxfile>
